<?xml version="1.0" encoding="utf-8"?>
<!-- Generator: Adobe Illustrator 16.0.0, SVG Export Plug-In . SVG Version: 6.00 Build 0)  -->
<!DOCTYPE svg PUBLIC "-//W3C//DTD SVG 1.1//EN" "http://www.w3.org/Graphics/SVG/1.1/DTD/svg11.dtd">
<svg version="1.1" id="Layer_1" xmlns="http://www.w3.org/2000/svg" xmlns:xlink="http://www.w3.org/1999/xlink" x="0px" y="0px"
	 width="172.999px" height="24px" viewBox="0 0 172.999 24" enable-background="new 0 0 172.999 24" xml:space="preserve">
<g>
	<g>
		<path d="M23.727,8.793L12.413,0.14c-0.012-0.009-0.026-0.011-0.039-0.019c-0.039-0.026-0.08-0.042-0.123-0.06
			c-0.041-0.017-0.08-0.035-0.123-0.043c-0.042-0.008-0.083-0.006-0.127-0.006c-0.045,0-0.088-0.002-0.133,0.007
			c-0.04,0.008-0.076,0.024-0.114,0.04c-0.046,0.018-0.09,0.036-0.132,0.064c-0.011,0.007-0.024,0.009-0.035,0.017L0.274,8.793
			C-0.029,9.025-0.09,9.462,0.138,9.77c0.135,0.183,0.341,0.277,0.548,0.277c0.145,0,0.289-0.045,0.413-0.14L2.874,8.55v11.836
			C2.874,23.121,3.577,24,6.172,24h11.657c2.595,0,3.559-0.879,3.559-3.614V8.749l1.515,1.158c0.123,0.095,0.269,0.14,0.41,0.14
			c0.209,0,0.415-0.095,0.55-0.277C24.09,9.462,24.029,9.025,23.727,8.793z M14.531,22.605h-4.8v-5.914
			c0-0.692-0.13-0.705,0.624-0.705h3.292c0.754,0,0.885,0.013,0.885,0.705V22.605z M20.016,7.971v12.415
			c0,1.993-0.343,2.22-2.188,2.22h-2.612v-5.914c0-1.2-0.575-1.402-1.57-1.402h-3.292c-0.996,0-1.31,0.202-1.31,1.402v5.914H6.172
			c-1.846,0-1.927-0.227-1.927-2.22V7.971c0-0.142-0.052-0.266-0.124-0.376L12,1.57l8.063,6.166
			C20.036,7.81,20.016,7.888,20.016,7.971z M10.153,5.104L5.686,8.61C5.601,8.675,5.617,8.778,5.617,8.886v3.963
			c0,0.193,0.153,0.349,0.343,0.349c0.189,0,0.343-0.155,0.343-0.349V9.058l4.309-3.402c0.15-0.116,0.122-0.335,0.006-0.488
			S10.303,4.986,10.153,5.104z M5.959,13.895c-0.19,0-0.343,0.156-0.343,0.349v0.349c0,0.192,0.153,0.349,0.343,0.349
			c0.189,0,0.343-0.156,0.343-0.349v-0.349C6.302,14.051,6.148,13.895,5.959,13.895z"/>
	</g>
</g>
<g>
	<g>
		<path d="M62.801,2.182H62.77V0.727C62.77,0.326,62.355,0,61.848,0c-0.511,0-0.926,0.325-0.926,0.727v1.455h-3.229V0.727
			C57.692,0.326,57.279,0,56.77,0s-0.924,0.325-0.924,0.727v1.455h-3.23V0.727C52.615,0.326,52.202,0,51.693,0
			c-0.51,0-0.924,0.325-0.924,0.727v1.455h-3.23V0.727C47.539,0.326,47.125,0,46.615,0s-0.923,0.325-0.923,0.727v1.455h-0.493
			C43.434,2.182,42,3.31,42,4.703v16.776C42,22.871,43.434,24,45.199,24h17.602C64.567,24,66,22.871,66,21.479V4.703
			C66,3.31,64.567,2.182,62.801,2.182z M64.154,21.479c0,0.59-0.605,1.066-1.354,1.066H45.199c-0.746,0-1.354-0.477-1.354-1.066
			V9.09h20.309V21.479z M64.154,8.364H43.846V4.703c0-0.589,0.607-1.066,1.354-1.066h0.493v1.818c0,0.401,0.413,0.727,0.923,0.727
			s0.924-0.325,0.924-0.727V3.636h3.23v1.818c0,0.401,0.414,0.727,0.924,0.727c0.509,0,0.922-0.325,0.922-0.727V3.636h3.23v1.818
			c0,0.401,0.414,0.727,0.924,0.727s0.923-0.325,0.923-0.727V3.636h3.229v1.818c0,0.401,0.415,0.727,0.926,0.727
			c0.508,0,0.922-0.325,0.922-0.727V3.636h0.031c0.748,0,1.354,0.478,1.354,1.066V8.364z M53.133,21.453h7.569
			c1.289,0,2.067-0.973,2.067-2.479v-1.156c0-0.201-0.207-0.365-0.461-0.365c-0.256,0-0.461,0.164-0.461,0.365v1.156
			c0,1.064-0.417,1.752-1.146,1.752h-7.569c-0.256,0-0.463,0.162-0.463,0.363S52.877,21.453,53.133,21.453z M62.418,16.346
			c0.121,0,0.24-0.037,0.327-0.105c0.085-0.07,0.134-0.164,0.134-0.26c0-0.094-0.049-0.188-0.134-0.258
			c-0.175-0.135-0.479-0.131-0.654,0.004c-0.085,0.066-0.136,0.16-0.136,0.254c0,0.1,0.051,0.193,0.136,0.26
			C62.178,16.309,62.298,16.346,62.418,16.346z"/>
	</g>
</g>
<path d="M95.924,16.5c3.722,0,6.75-3.701,6.75-8.25c0-4.548-3.029-8.25-6.75-8.25c-1.835,0-3.55,0.881-4.828,2.479
	c-1.239,1.549-1.922,3.599-1.922,5.772C89.174,12.799,92.202,16.5,95.924,16.5z M95.924,1.501c2.895,0,5.249,3.027,5.249,6.75
	c0,3.722-2.354,6.749-5.249,6.749s-5.249-3.027-5.25-6.749C90.674,4.528,93.029,1.501,95.924,1.501z M101.173,15
	c-0.414,0-0.749,0.335-0.749,0.75c0,0.414,0.335,0.75,0.749,0.75c2.896,0,5.251,2.355,5.251,5.25c0,0.413-0.337,0.75-0.75,0.75
	h-19.5c-0.413,0-0.75-0.337-0.75-0.75c0-2.895,2.355-5.25,5.251-5.25c0.414,0,0.749-0.336,0.749-0.75c0-0.415-0.335-0.75-0.749-0.75
	c-3.724,0-6.751,3.028-6.751,6.75c0,1.24,1.01,2.25,2.25,2.25h19.5c1.24,0,2.25-1.01,2.25-2.25
	C107.924,18.028,104.896,15,101.173,15z"/>
<g>
	<g>
		<path d="M135.394,22.461h-1.814c-0.43,0-0.763,0.348-0.763,0.777S133.149,24,133.579,24h1.814c0.457,0,0.804-0.332,0.804-0.762
			S135.851,22.461,135.394,22.461z M136.82,20.34h-4.627c-0.43,0-0.79,0.332-0.79,0.764c0,0.428,0.36,0.762,0.79,0.762h4.627
			c0.43,0,0.763-0.334,0.763-0.762C137.583,20.672,137.25,20.34,136.82,20.34z M141.863,4.201c-0.762-1.289-1.791-2.307-3.103-3.063
			C137.453,0.383,136.031,0,134.493,0c-2.286,0-4.499,0.96-6.013,2.469c-1.507,1.5-2.48,3.674-2.48,5.947
			c0,1.026,0.235,2.08,0.693,3.147c0.457,1.067,1.167,2.382,2.119,3.952c0.226,0.371,0.478,0.945,0.776,1.705
			c0.366,0.932,0.692,1.566,0.956,1.928c0.151,0.207,0.359,0.305,0.623,0.305h6.928c0.291,0,0.495-0.127,0.65-0.361
			c0.205-0.307,0.424-0.834,0.68-1.566c0.271-0.777,0.51-1.332,0.706-1.678c0.926-1.624,1.648-3.022,2.134-4.173
			C142.751,10.523,143,9.428,143,8.416C143,6.904,142.626,5.49,141.863,4.201z M140.783,11.244
			c-0.455,1.041-1.103,2.333-1.981,3.842c-0.285,0.488-0.559,1.121-0.817,1.926c-0.102,0.318-0.222,0.625-0.347,0.916h-6.04
			c-0.208-0.348-0.371-0.783-0.568-1.275c-0.385-0.963-0.706-1.594-0.914-1.941c-0.873-1.456-1.51-2.648-1.939-3.605
			c-0.43-0.956-0.622-1.844-0.638-2.689c-0.067-3.688,3.214-6.939,6.955-6.877c1.261,0.021,2.438,0.305,3.505,0.93
			c1.067,0.623,1.912,1.455,2.536,2.509c0.623,1.054,0.941,2.204,0.941,3.438C141.476,9.248,141.243,10.191,140.783,11.244z"/>
	</g>
</g>
<g>
	<g>
		<path fill="#FFFFFF" d="M170.507,21.039c-0.008,0.002-0.839,0.277-1.558,0.277c-0.397,0-0.558-0.083-0.609-0.119
			c-0.252-0.174-0.719-0.504,0.082-2.1l1.499-2.99c0.891-1.776,1.021-3.494,0.368-4.839c-0.533-1.099-1.558-1.854-2.88-2.125
			c-0.476-0.097-0.959-0.146-1.437-0.146c-2.775,0-4.642,1.621-4.72,1.69c-0.269,0.238-0.33,0.63-0.153,0.939
			c0.181,0.309,0.552,0.45,0.894,0.332c0.008-0.002,0.838-0.28,1.558-0.28c0.396,0,0.553,0.082,0.604,0.117
			c0.253,0.178,0.724,0.51-0.077,2.104l-1.5,2.992c-0.891,1.777-1.02,3.494-0.367,4.836c0.534,1.102,1.558,1.854,2.882,2.125
			c0.471,0.095,0.953,0.146,1.431,0.146c2.775,0,4.643-1.619,4.723-1.688c0.268-0.237,0.331-0.631,0.152-0.94
			C171.218,21.064,170.843,20.926,170.507,21.039z M169.249,0c-2.07,0-3.749,1.679-3.749,3.75c0,2.071,1.679,3.75,3.749,3.75
			c2.072,0,3.75-1.679,3.75-3.75C172.999,1.679,171.321,0,169.249,0z"/>
	</g>
</g>
</svg>
